<svg width="28" height="29" viewBox="0 0 28 29" fill="none" xmlns="http://www.w3.org/2000/svg">
<path d="M15 22H20L18.595 20.595C18.4063 20.4063 18.2567 20.1822 18.1546 19.9357C18.0525 19.6891 18 19.4249 18 19.158V16C18.0002 14.7589 17.6156 13.5483 16.8992 12.5349C16.1829 11.5214 15.17 10.755 14 10.341V10C14 9.46957 13.7893 8.96086 13.4142 8.58579C13.0391 8.21071 12.5304 8 12 8C11.4696 8 10.9609 8.21071 10.5858 8.58579C10.2107 8.96086 10 9.46957 10 10V10.341C7.67 11.165 6 13.388 6 16V19.159C6 19.697 5.786 20.214 5.405 20.595L4 22H9M15 22H9M15 22V23C15 23.7956 14.6839 24.5587 14.1213 25.1213C13.5587 25.6839 12.7956 26 12 26C11.2044 26 10.4413 25.6839 9.87868 25.1213C9.31607 24.5587 9 23.7956 9 23V22" stroke="#016BFF" stroke-width="2" stroke-linecap="round" stroke-linejoin="round"/>
<circle cx="20.5" cy="7.5" r="7.5" fill="#FA2424"/>
<path d="M20.6094 12.1406C22.4023 12.1406 23.6738 11.1094 23.6738 9.66211V9.65039C23.6738 8.4668 22.8418 7.7168 21.5996 7.60547V7.57617C22.6309 7.35938 23.3809 6.65625 23.3809 5.60742V5.5957C23.3809 4.29492 22.2793 3.4043 20.5977 3.4043C18.9453 3.4043 17.8203 4.33594 17.6914 5.74805L17.6855 5.80664H18.916L18.9219 5.75391C19.0039 4.96875 19.6602 4.47656 20.5977 4.47656C21.5527 4.47656 22.1035 4.95117 22.1035 5.76562V5.77734C22.1035 6.5625 21.4473 7.13086 20.4805 7.13086H19.4902V8.15039H20.5156C21.6465 8.15039 22.3379 8.68359 22.3379 9.63867V9.65039C22.3379 10.4707 21.6406 11.0449 20.6094 11.0449C19.5605 11.0449 18.8516 10.5176 18.7695 9.76758L18.7637 9.70312H17.5039L17.5098 9.7793C17.627 11.1562 18.8047 12.1406 20.6094 12.1406Z" fill="white"/>
</svg>
