<svg width="101" height="27" viewBox="0 0 101 27" fill="none" xmlns="http://www.w3.org/2000/svg">
<path d="M0.337891 26H4.27539V17.334H9.77734C14.752 17.334 18.1973 13.9414 18.1973 8.98438V8.94922C18.1973 3.97461 14.752 0.634766 9.77734 0.634766H0.337891V26ZM8.79297 3.95703C12.2207 3.95703 14.1895 5.80273 14.1895 8.9668V9.00195C14.1895 12.1836 12.2207 14.0293 8.79297 14.0293H4.27539V3.95703H8.79297ZM21.1855 26H24.9824V14.9785C24.9824 12.2188 26.4941 10.6191 28.9375 10.6191C29.6758 10.6191 30.3438 10.707 30.6426 10.8301V7.29688C30.3438 7.24414 29.8691 7.15625 29.3242 7.15625C27.2148 7.15625 25.668 8.50977 25.0703 10.6719H24.9824V7.50781H21.1855V26ZM40.082 26.3691C44.5645 26.3691 47.4121 23.6973 48.0098 20.7617L48.0449 20.5684H44.4414L44.3887 20.709C43.9141 22.0977 42.4199 23.2578 40.1699 23.2578C37.1465 23.2578 35.2305 21.2188 35.1602 17.7207H48.2559V16.4375C48.2559 10.8828 45.0742 7.15625 39.8887 7.15625C34.7031 7.15625 31.3633 11.0234 31.3633 16.8066V16.8242C31.3633 22.6602 34.6504 26.3691 40.082 26.3691ZM39.9062 10.2676C42.3848 10.2676 44.1777 11.832 44.4941 15.0312H35.2129C35.5469 11.9375 37.4453 10.2676 39.9062 10.2676ZM58.1348 26.3691C62.4941 26.3691 65.6582 24.0488 65.6582 20.6738V20.6562C65.6582 18.002 64.2168 16.5078 60.4375 15.6289L57.4316 14.9434C55.4453 14.4688 54.6895 13.6953 54.6895 12.5527V12.5352C54.6895 11.0586 55.9727 10.0918 58.0117 10.0918C60.1562 10.0918 61.4219 11.2168 61.6504 12.834L61.668 12.957H65.2363L65.2188 12.7461C65.0254 9.59961 62.3887 7.15625 58.0117 7.15625C53.7578 7.15625 50.875 9.42383 50.875 12.7285V12.7461C50.875 15.4355 52.6152 17.123 56.1309 17.9316L59.1543 18.6172C61.1406 19.0918 61.8086 19.7773 61.8086 20.9727V20.9902C61.8086 22.4844 60.4375 23.4336 58.1523 23.4336C55.8145 23.4336 54.5488 22.4316 54.1973 20.7266L54.1621 20.5508H50.4004L50.418 20.709C50.8047 24.084 53.5117 26.3691 58.1348 26.3691ZM75.5371 26.3691C79.8965 26.3691 83.0605 24.0488 83.0605 20.6738V20.6562C83.0605 18.002 81.6191 16.5078 77.8398 15.6289L74.834 14.9434C72.8477 14.4688 72.0918 13.6953 72.0918 12.5527V12.5352C72.0918 11.0586 73.375 10.0918 75.4141 10.0918C77.5586 10.0918 78.8242 11.2168 79.0527 12.834L79.0703 12.957H82.6387L82.6211 12.7461C82.4277 9.59961 79.791 7.15625 75.4141 7.15625C71.1602 7.15625 68.2773 9.42383 68.2773 12.7285V12.7461C68.2773 15.4355 70.0176 17.123 73.5332 17.9316L76.5566 18.6172C78.543 19.0918 79.2109 19.7773 79.2109 20.9727V20.9902C79.2109 22.4844 77.8398 23.4336 75.5547 23.4336C73.2168 23.4336 71.9512 22.4316 71.5996 20.7266L71.5645 20.5508H67.8027L67.8203 20.709C68.207 24.084 70.9141 26.3691 75.5371 26.3691ZM91.4453 26.334C93.8887 26.334 96.0332 25.0684 97.1055 23.082H97.1758V26H100.99V13.2559C100.99 9.54688 98.125 7.15625 93.6074 7.15625C89.0547 7.15625 86.2949 9.59961 86.0312 12.7812L86.0137 12.9746H89.5996L89.6348 12.8164C89.9512 11.3398 91.3047 10.3027 93.502 10.3027C95.8574 10.3027 97.1758 11.5332 97.1758 13.5723V14.9609L92.1484 15.2598C87.7715 15.5234 85.2754 17.4922 85.2754 20.709V20.7441C85.2754 24.0664 87.7539 26.334 91.4453 26.334ZM89.1074 20.6562V20.6211C89.1074 19.0566 90.373 18.0547 92.6582 17.9141L97.1758 17.6328V19.0742C97.1758 21.4824 95.1543 23.293 92.4824 23.293C90.4434 23.293 89.1074 22.2734 89.1074 20.6562Z" fill="#006AFF"/>
</svg>
